<svg width="23" height="23" viewBox="0 0 23 23" fill="none" xmlns="http://www.w3.org/2000/svg">
<g id="material-symbols:heart-plus">
<path id="Vector" d="M17.25 16.2917V13.4167H14.375V11.5H17.25V8.625H19.1667V11.5H22.0417V13.4167H19.1667V16.2917H17.25ZM10.5417 20.125L7.49895 17.3937C6.34895 16.3556 5.36283 15.4292 4.54058 14.6146C3.71769 13.8 3.03887 13.0333 2.50412 12.3146C1.96873 11.5958 1.57741 10.901 1.33016 10.2302C1.08227 9.55938 0.958328 8.8566 0.958328 8.12188C0.958328 6.62049 1.46145 5.3705 2.4677 4.37192C3.47395 3.37397 4.72777 2.875 6.22916 2.875C7.05972 2.875 7.85034 3.04654 8.60104 3.38962C9.35173 3.73335 9.99861 4.22465 10.5417 4.86354C11.0847 4.22465 11.7316 3.73335 12.4823 3.38962C13.233 3.04654 14.0236 2.875 14.8542 2.875C16.2118 2.875 17.3497 3.28613 18.2677 4.10838C19.1865 4.93126 19.7576 5.89375 19.9812 6.99583C19.6937 6.88403 19.4062 6.80001 19.1187 6.74379C18.8312 6.68821 18.5517 6.66042 18.2802 6.66042C16.667 6.66042 15.2934 7.22328 14.1594 8.349C13.0253 9.47536 12.4583 10.8451 12.4583 12.4583C12.4583 13.2889 12.626 14.0754 12.9615 14.8177C13.2969 15.5608 13.768 16.1958 14.375 16.7229C14.0715 16.9944 13.676 17.342 13.1886 17.7656C12.7017 18.1885 12.2826 18.5597 11.9312 18.8792L10.5417 20.125Z" fill="#AF0112"/>
</g>
</svg>
