<svg width="26" height="26" viewBox="0 0 26 26" fill="none" xmlns="http://www.w3.org/2000/svg">
<g id="material-symbols:heart-plus-outline">
<path id="Vector" d="M11.9167 22.75L8.47709 19.6625C7.17709 18.4889 6.06234 17.4417 5.13284 16.5208C4.20262 15.6 3.43526 14.7333 2.83076 13.9208C2.22554 13.1083 1.78318 12.3229 1.50368 11.5646C1.22345 10.8063 1.08334 10.0118 1.08334 9.18125C1.08334 7.48403 1.65209 6.071 2.78959 4.94217C3.92709 3.81406 5.34445 3.25 7.04168 3.25C7.98057 3.25 8.87432 3.44861 9.72293 3.84583C10.5715 4.24306 11.3028 4.80278 11.9167 5.525C12.5306 4.80278 13.2618 4.24306 14.1104 3.84583C14.959 3.44861 15.8528 3.25 16.7917 3.25C18.2542 3.25 19.482 3.66058 20.475 4.48175C21.4681 5.30364 22.1451 6.3375 22.5063 7.58333H20.2042C19.8792 6.86111 19.4007 6.31944 18.7688 5.95833C18.1368 5.59722 17.4778 5.41667 16.7917 5.41667C15.8708 5.41667 15.0764 5.66511 14.4083 6.162C13.7403 6.65817 13.1174 7.3125 12.5396 8.125H11.2938C10.734 7.3125 10.0978 6.65817 9.38493 6.162C8.67137 5.66511 7.89029 5.41667 7.04168 5.41667C6.01251 5.41667 5.12309 5.77308 4.37343 6.48592C3.62448 7.19947 3.25001 8.09792 3.25001 9.18125C3.25001 9.77708 3.3764 10.3819 3.62918 10.9958C3.88195 11.6097 4.33334 12.3186 4.98334 13.1224C5.63334 13.9255 6.51807 14.8641 7.63751 15.938C8.75695 17.0127 10.1833 18.3083 11.9167 19.825C12.3861 19.4097 12.9368 18.9313 13.5688 18.3896C14.2007 17.8479 14.7063 17.3965 15.0854 17.0354L15.3292 17.2792L15.8568 17.8078L16.3854 18.3354L16.6292 18.5792C16.232 18.9403 15.7264 19.387 15.1125 19.9193C14.4986 20.4522 13.957 20.9264 13.4875 21.3417L11.9167 22.75ZM19.5 18.4167V15.1667H16.25V13H19.5V9.75H21.6667V13H24.9167V15.1667H21.6667V18.4167H19.5Z" fill="black"/>
</g>
</svg>
